<svg width="44" height="54" viewBox="0 0 44 54" fill="none" xmlns="http://www.w3.org/2000/svg">
<path d="M43.4177 17.1521V48.6837C43.4177 51.6198 41.0375 54 38.1014 54H5.3163C2.38016 54 3.98788e-09 51.6198 3.98788e-09 48.6837V5.3163C-0.000112496 2.38016 2.38005 0 5.3163 0H27.2749L43.4177 17.1521Z" fill="#5B9425"/>
<path d="M43.4176 17.1521H30.8191C28.8617 17.1521 27.2749 15.5653 27.2749 13.6079V0L43.4176 17.1521Z" fill="#D1E7D1"/>
<path d="M11.3291 37.9222V41.5149H8.77832V30.9307H13.0009C13.8108 30.9307 14.5273 31.0795 15.1503 31.3772C15.7733 31.6749 16.2544 32.1006 16.5971 32.6509C16.9363 33.2013 17.1093 33.8243 17.1093 34.5234C17.1093 35.5548 16.7389 36.3786 15.9982 36.9981C15.261 37.6142 14.2468 37.9222 12.9559 37.9222H11.3291ZM11.3291 35.9528H13.0009C13.4959 35.9528 13.8731 35.8316 14.1326 35.5824C14.3922 35.3367 14.5203 34.9871 14.5203 34.5372C14.5203 34.0422 14.3853 33.6477 14.1188 33.35C13.8523 33.0558 13.4889 32.907 13.0286 32.9H11.3291V35.9528Z" fill="white"/>
<path d="M18.4661 41.5149V30.9307H21.8753C22.8098 30.9307 23.6509 31.1418 24.3984 31.5675C25.1426 31.9897 25.7275 32.5886 26.1463 33.3639C26.5652 34.1358 26.7762 35.001 26.7797 35.9598V36.4478C26.7797 37.4169 26.5755 38.2857 26.167 39.0541C25.7587 39.8224 25.1806 40.4213 24.4364 40.8573C23.6923 41.29 22.8616 41.508 21.9478 41.515H18.4661V41.5149ZM21.017 32.9001V39.5524H21.9031C22.6368 39.5524 23.1975 39.2929 23.5886 38.7702C23.9832 38.251 24.1805 37.4758 24.1805 36.4478V35.9909C24.1805 34.9664 23.9832 34.198 23.5886 33.6788C23.1975 33.1596 22.6264 32.9001 21.8754 32.9001H21.017Z" fill="white"/>
<path d="M34.7577 37.2992H30.6424V41.5149H28.0916V30.9307H35.1696V32.9001H30.6424V35.3367H34.7577V37.2992Z" fill="white"/>
</svg>
